<?xml version="1.0" encoding="utf-8" standalone="yes"?>
<!DOCTYPE svg PUBLIC "-//W3C//DTD SVG 1.1//EN" "http://www.w3.org/Graphics/SVG/1.1/DTD/svg11.dtd">
<svg style="fill:none;stroke:none;fill-rule:evenodd;clip-rule:evenodd;stroke-linecap:round;stroke-linejoin:round;stroke-miterlimit:1.5;" version="1.1" xmlns="http://www.w3.org/2000/svg" xmlns:xlink="http://www.w3.org/1999/xlink" width="1048" height="600" viewBox="0 0 1048 600"><style class="text-font-style fontImports" data-font-family="Roboto">@import url(https://fonts.googleapis.com/css2?family=Roboto:wght@400;700&amp;amp;display=block);</style><g id="items" style="isolation: isolate"><g id="blend" style="mix-blend-mode: normal"><g id="g-root-cp_1-1_text_1_1_hs5prxuvk2di-fill" data-item-order="-503981" transform="translate(92, 194)"></g><g id="g-root-cp_1-2_text_1_2_4gp7eluvk3yf-fill" data-item-order="-503971" transform="translate(92, 242)"></g><g id="g-root-cp_1-3_text_1_3_vpa5uvk4qo-fill" data-item-order="-503961" transform="translate(80, 290)"></g><g id="g-root-cp_1_g-1_1q6cr0duvk5c9-fill" data-item-order="-503949" transform="translate(206, 242)"></g><g id="g-root-cp_3-1_text_3_1_1cvipq5uvk3re-fill" data-item-order="-503929" transform="translate(68, 374)"></g><g id="g-root-cp_3-2_text_3_2_18fp7lpuvk4jn-fill" data-item-order="-503919" transform="translate(56, 422)"></g><g id="g-root-cp_3-3_text_3_3_zk27ctuvk5cc-fill" data-item-order="-503909" transform="translate(56, 470)"></g><g id="g-root-cp_3_g-3_v4v6bhuvk2yt-fill" data-item-order="-503897" transform="translate(206, 422)"></g><g id="g-root-cp_-1_text-start_hteny5uvk4jq-fill" data-item-order="-503882" transform="translate(442, 260)"><g id="cp_-1_text-start_hteny5uvk4jq-fill-merged" stroke="none" fill="#1fa9d7" fill-opacity="1"><g><path d="M10 137C10 146.389 17.611 154 27 154 H137C146.389 154 154 146.389 154 137 V27C154 17.611 146.389 10 137 10 H27C17.611 10 10 17.611 10 27 V137"></path></g></g></g><g id="g-root-cp_2_g-2_4ikmnxuvk2yv-fill" data-item-order="-503833" transform="translate(682, 326)"></g><g id="g-root-cp_2-1_g-2-1_2r4jhuvk3r4-fill" data-item-order="-503817" transform="translate(858, 158)"></g><g id="g-root-cp_2-2_g-2-2_1lseo59uvk54x-fill" data-item-order="-503807" transform="translate(858, 218)"></g><g id="g-root-cp_2-3_g-2-3_1cxe4zhuvk2ru-fill" data-item-order="-503797" transform="translate(858, 266)"></g><g id="g-root-cp_2-4_g-2-4_18hkmv1uvk3k3-fill" data-item-order="-503787" transform="translate(858, 314)"></g><g id="g-root-cp_2-5_g-2-5_v644hpuvk550-fill" data-item-order="-503777" transform="translate(858, 362)"></g><g id="g-root-cp_2-6_g-2-6_mb3lbxuvk2rx-fill" data-item-order="-503767" transform="translate(858, 410)"></g><g id="g-root-cp_2-7_g-2-7_hva37huvk3k6-fill" data-item-order="-503757" transform="translate(858, 458)"></g><g id="g-root-cp_2-8_g-2-8_8zn2yluvk4cv-fill" data-item-order="-503747" transform="translate(858, 506)"></g><g id="g-root-he_4jtku5uvk555-fill" data-item-order="-503733" transform="translate(346, 242)"></g><g id="g-root-he_4mjstuvk2rn-fill" data-item-order="-503731" transform="translate(170, 194)"></g><g id="g-root-he_1qa3lj1uvk3d9-fill" data-item-order="-503729" transform="translate(586, 326)"></g><g id="g-root-he_1qa3lj1uvk3db-fill" data-item-order="-503727" transform="translate(822, 158)"></g><g id="g-root-he_1lua3eluvk45l-fill" data-item-order="-503725" transform="translate(346, 332)"></g><g id="g-root-he_1hegla5uvk4xv-fill" data-item-order="-503723" transform="translate(170, 374)"></g><g id="g-root-tx_machinel_1qd7yyluvliq1-fill" data-item-order="0" transform="translate(864, 176)"><g id="tx_machinel_1qd7yyluvliq1-fill-merged" stroke="none" fill="#f4f4f4" fill-opacity="1"><g><text style="font: 11.7px Roboto, sans-serif; white-space: pre;" transform="translate(10, 28)" font-size="11.7px" font-family="Roboto, sans-serif"><tspan x="2" y="0" dominant-baseline="ideographic">Machine Learning </tspan><tspan x="2" y="14" dominant-baseline="ideographic">Models</tspan></text></g></g></g><g id="g-root-tx_utilitie_94mvnhuvliq4-fill" data-item-order="0" transform="translate(864, 284)"><g id="tx_utilitie_94mvnhuvliq4-fill-merged" stroke="none" fill="#f4f4f4" fill-opacity="1"><g><text style="font: 11.7px Roboto, sans-serif; white-space: pre;" transform="translate(10, 22)" font-size="11.7px" font-family="Roboto, sans-serif"><tspan x="2" y="7" dominant-baseline="ideographic">Utilities</tspan></text></g></g></g><g id="g-root-tx_smartdem_18itl19uvljwq-fill" data-item-order="0" transform="translate(454, 272)"><g id="tx_smartdem_18itl19uvljwq-fill-merged" stroke="none" fill="#2c2c2c" fill-opacity="1"><g><text style="font: bold 25px Roboto, sans-serif; white-space: pre;" transform="translate(70, 70)" font-weight="bold" font-size="25px" font-family="Roboto, sans-serif"><tspan x="-34.64" y="-30.29" dominant-baseline="ideographic">Smart </tspan><tspan x="-54" y="-0.29" dominant-baseline="ideographic">Dementia </tspan><tspan x="-54.28" y="29.71" dominant-baseline="ideographic">Detection </tspan><tspan x="-57.69" y="59.71" dominant-baseline="ideographic">AI System</tspan></text></g></g></g><g id="g-root-tx_sourceco_qu1gvxuvk3y9-fill" data-item-order="0" transform="translate(92, 212)"><g id="tx_sourceco_qu1gvxuvk3y9-fill-merged" stroke="none" fill="#f4f4f4" fill-opacity="1"><g><text style="font: 11.7px Roboto, sans-serif; white-space: pre;" transform="translate(82, 22)" font-size="11.7px" font-family="Roboto, sans-serif"><tspan x="-68.25" y="7" dominant-baseline="ideographic">Source Code</tspan></text></g></g></g><g id="g-root-tx_database_1qf3e7xuvlhqd-fill" data-item-order="0" transform="translate(864, 332)"><g id="tx_database_1qf3e7xuvlhqd-fill-merged" stroke="none" fill="#f4f4f4" fill-opacity="1"><g><text style="font: 11.7px Roboto, sans-serif; white-space: pre;" transform="translate(10, 22)" font-size="11.7px" font-family="Roboto, sans-serif"><tspan x="2" y="7" dominant-baseline="ideographic">Database</tspan></text></g></g></g><g id="g-root-tx_frontend_94mvnhuvk4jx-fill" data-item-order="0" transform="translate(234, 212)"><g id="tx_frontend_94mvnhuvk4jx-fill-merged" stroke="none" fill="#f79438" fill-opacity="1"><g><text style="font: bold 20px Roboto, sans-serif; white-space: pre;" transform="translate(94, 22)" font-weight="bold" font-size="20px" font-family="Roboto, sans-serif"><tspan x="-82.29" y="12" dominant-baseline="ideographic">Frontend</tspan></text></g></g></g><g id="g-root-tx_publicfi_1lw5inxuvk35z-fill" data-item-order="0" transform="translate(92, 164)"><g id="tx_publicfi_1lw5inxuvk35z-fill-merged" stroke="none" fill="#f4f4f4" fill-opacity="1"><g><text style="font: 11.7px Roboto, sans-serif; white-space: pre;" transform="translate(82, 22)" font-size="11.7px" font-family="Roboto, sans-serif"><tspan x="-61.53" y="7" dominant-baseline="ideographic">Public Files</tspan></text></g></g></g><g id="g-root-tx_backend_4lp03huvlibw-fill" data-item-order="0" transform="translate(663.4285888671875, 264.122314453125)"><g id="tx_backend_4lp03huvlibw-fill-merged" stroke="none" fill="#e45752" fill-opacity="1"><g><text style="font: 20px Roboto, sans-serif; white-space: pre;" transform="translate(10, 34)" font-size="20px" font-family="Roboto, sans-serif"><tspan x="2" y="12" dominant-baseline="ideographic">Backend</tspan></text></g></g></g><g id="g-root-tx_apiroute_me7yrhuvli4v-fill" data-item-order="0" transform="translate(864, 128)"><g id="tx_apiroute_me7yrhuvli4v-fill-merged" stroke="none" fill="#f4f4f4" fill-opacity="1"><g><text style="font: 11.7px Roboto, sans-serif; white-space: pre;" transform="translate(10, 22)" font-size="11.7px" font-family="Roboto, sans-serif"><tspan x="2" y="7" dominant-baseline="ideographic">API Routes</tspan></text></g></g></g><g id="g-root-tx_nginxcon_hs5prxuvlhc1-fill" data-item-order="0" transform="translate(56, 392)"><g id="tx_nginxcon_hs5prxuvlhc1-fill-merged" stroke="none" fill="#f4f4f4" fill-opacity="1"><g><text style="font: 11.7px Roboto, sans-serif; white-space: pre;" transform="translate(118, 22)" font-size="11.7px" font-family="Roboto, sans-serif"><tspan x="-105.09" y="7" dominant-baseline="ideographic">Nginx Configuration</tspan></text></g></g></g><g id="g-root-tx_environm_8ye4sduvlh51-fill" data-item-order="0" transform="translate(216, 392)"><g id="tx_environm_8ye4sduvlh51-fill-merged" stroke="none" fill="#f366bb" fill-opacity="1"><g><text style="font: bold 20px Roboto, sans-serif; white-space: pre;" transform="translate(130, 22)" font-weight="bold" font-size="20px" font-family="Roboto, sans-serif"><tspan x="-115.51" y="12" dominant-baseline="ideographic">Environment</tspan></text></g></g></g><g id="g-root-tx_datastor_13ymrb1uvmvim-fill" data-item-order="0" transform="translate(864, 380)"><g id="tx_datastor_13ymrb1uvmvim-fill-merged" stroke="none" fill="#f4f4f4" fill-opacity="1"><g><text style="font: 11.7px Roboto, sans-serif; white-space: pre;" transform="translate(10, 22)" font-size="11.7px" font-family="Roboto, sans-serif"><tspan x="2" y="7" dominant-baseline="ideographic">Data Storage</tspan></text></g></g></g><g id="g-root-tx_smartdem_v7zjr1uvk45p-fill" data-item-order="0" transform="translate(286, 38)"><g id="tx_smartdem_v7zjr1uvk45p-fill-merged" stroke="none" fill="#f4f4f4" fill-opacity="1"><g><text style="font: bold 20px Roboto, sans-serif; white-space: pre;" transform="translate(238, 22)" font-weight="bold" font-size="20px" font-family="Roboto, sans-serif"><tspan x="-225.13" y="12" dominant-baseline="ideographic">Smart Dementia Detection AI System Architecture</tspan></text></g></g></g><g id="g-root-tx_document_1q6cr0duvmygx-fill" data-item-order="0" transform="translate(864, 476)"><g id="tx_document_1q6cr0duvmygx-fill-merged" stroke="none" fill="#f4f4f4" fill-opacity="1"><g><text style="font: 11.7px Roboto, sans-serif; white-space: pre;" transform="translate(10, 22)" font-size="11.7px" font-family="Roboto, sans-serif"><tspan x="2" y="7" dominant-baseline="ideographic">Documentation</tspan></text></g></g></g><g id="g-root-tx_deployme_1cvipq5uvlipv-fill" data-item-order="0" transform="translate(56, 440)"><g id="tx_deployme_1cvipq5uvlipv-fill-merged" stroke="none" fill="#f4f4f4" fill-opacity="1"><g><text style="font: 11.7px Roboto, sans-serif; white-space: pre;" transform="translate(118, 22)" font-size="11.7px" font-family="Roboto, sans-serif"><tspan x="-103.41" y="7" dominant-baseline="ideographic">Deployment Scripts</tspan></text></g></g></g><g id="g-root-tx_tests_qn68xpuvmx3j-fill" data-item-order="0" transform="translate(864, 428)"><g id="tx_tests_qn68xpuvmx3j-fill-merged" stroke="none" fill="#f4f4f4" fill-opacity="1"><g><text style="font: 11.7px Roboto, sans-serif; white-space: pre;" transform="translate(10, 22)" font-size="11.7px" font-family="Roboto, sans-serif"><tspan x="2" y="7" dominant-baseline="ideographic">Tests</tspan></text></g></g></g><g id="g-root-tx_services_1d2dxoduvlh56-fill" data-item-order="0" transform="translate(864, 236)"><g id="tx_services_1d2dxoduvlh56-fill-merged" stroke="none" fill="#f4f4f4" fill-opacity="1"><g><text style="font: 11.7px Roboto, sans-serif; white-space: pre;" transform="translate(10, 22)" font-size="11.7px" font-family="Roboto, sans-serif"><tspan x="2" y="7" dominant-baseline="ideographic">Services</tspan></text></g></g></g><g id="g-root-tx_dependen_1lxegu5uvk5c3-fill" data-item-order="0" transform="translate(80, 260)"><g id="tx_dependen_1lxegu5uvk5c3-fill-merged" stroke="none" fill="#f4f4f4" fill-opacity="1"><g><text style="font: 11.7px Roboto, sans-serif; white-space: pre;" transform="translate(94, 22)" font-size="11.7px" font-family="Roboto, sans-serif"><tspan x="-75.59" y="7" dominant-baseline="ideographic">Dependencies</tspan></text></g></g></g><g id="g-root-tx_dockerco_1d3mvuluvk553-fill" data-item-order="0" transform="translate(68, 344)"><g id="tx_dockerco_1d3mvuluvk553-fill-merged" stroke="none" fill="#f4f4f4" fill-opacity="1"><g><text style="font: 11.7px Roboto, sans-serif; white-space: pre;" transform="translate(106, 22)" font-size="11.7px" font-family="Roboto, sans-serif"><tspan x="-91.41" y="7" dominant-baseline="ideographic">Docker Compose</tspan></text></g></g></g><g id="g-root-cp_1-1_text_1_1_hs5prxuvk2di-stroke" data-item-order="-503981" transform="translate(92, 194)"><g id="cp_1-1_text_1_1_hs5prxuvk2di-stroke" fill="none" stroke-linecap="round" stroke-linejoin="round" stroke-miterlimit="4" stroke="#b95ce3" stroke-width="2" stroke-opacity="1"><g><path d="M 10 10L 88 10"></path></g></g></g><g id="g-root-cp_1-2_text_1_2_4gp7eluvk3yf-stroke" data-item-order="-503971" transform="translate(92, 242)"><g id="cp_1-2_text_1_2_4gp7eluvk3yf-stroke" fill="none" stroke-linecap="round" stroke-linejoin="round" stroke-miterlimit="4" stroke="#b95ce3" stroke-width="2" stroke-opacity="1"><g><path d="M 10 10L 88 10"></path></g></g></g><g id="g-root-cp_1-3_text_1_3_vpa5uvk4qo-stroke" data-item-order="-503961" transform="translate(80, 290)"><g id="cp_1-3_text_1_3_vpa5uvk4qo-stroke" fill="none" stroke-linecap="round" stroke-linejoin="round" stroke-miterlimit="4" stroke="#b95ce3" stroke-width="2" stroke-opacity="1"><g><path d="M 10 10L 100 10"></path></g></g></g><g id="g-root-cp_1_g-1_1q6cr0duvk5c9-stroke" data-item-order="-503949" transform="translate(206, 242)"><g id="cp_1_g-1_1q6cr0duvk5c9-stroke" fill="none" stroke-linecap="round" stroke-linejoin="round" stroke-miterlimit="4" stroke="#b95ce3" stroke-width="2" stroke-opacity="1"><g><path d="M 10 10L 150 10"></path></g></g></g><g id="g-root-cp_3-1_text_3_1_1cvipq5uvk3re-stroke" data-item-order="-503929" transform="translate(68, 374)"><g id="cp_3-1_text_3_1_1cvipq5uvk3re-stroke" fill="none" stroke-linecap="round" stroke-linejoin="round" stroke-miterlimit="4" stroke="#b95ce3" stroke-width="2" stroke-opacity="1"><g><path d="M 10 10L 112 10"></path></g></g></g><g id="g-root-cp_3-2_text_3_2_18fp7lpuvk4jn-stroke" data-item-order="-503919" transform="translate(56, 422)"><g id="cp_3-2_text_3_2_18fp7lpuvk4jn-stroke" fill="none" stroke-linecap="round" stroke-linejoin="round" stroke-miterlimit="4" stroke="#b95ce3" stroke-width="2" stroke-opacity="1"><g><path d="M 10 10L 124 10"></path></g></g></g><g id="g-root-cp_3-3_text_3_3_zk27ctuvk5cc-stroke" data-item-order="-503909" transform="translate(56, 470)"><g id="cp_3-3_text_3_3_zk27ctuvk5cc-stroke" fill="none" stroke-linecap="round" stroke-linejoin="round" stroke-miterlimit="4" stroke="#b95ce3" stroke-width="2" stroke-opacity="1"><g><path d="M 10 10L 124 10"></path></g></g></g><g id="g-root-cp_3_g-3_v4v6bhuvk2yt-stroke" data-item-order="-503897" transform="translate(206, 422)"><g id="cp_3_g-3_v4v6bhuvk2yt-stroke" fill="none" stroke-linecap="round" stroke-linejoin="round" stroke-miterlimit="4" stroke="#b95ce3" stroke-width="2" stroke-opacity="1"><g><path d="M 10 10L 150 10"></path></g></g></g><g id="g-root-cp_-1_text-start_hteny5uvk4jq-stroke" data-item-order="-503882" transform="translate(442, 260)"><g id="cp_-1_text-start_hteny5uvk4jq-stroke" fill="none" stroke-linecap="round" stroke-linejoin="round" stroke-miterlimit="4" stroke="#cb68f9" stroke-width="2" stroke-opacity="1"><g><path d="M 27 10C 17.6112 10 10 17.6112 10 27M 137 10L 27 10M 154 137C 154 146.3888 146.3888 154 137 154M 137 10C 146.3888 10 154 17.6112 154 27M 10 137L 10 27M 154 137L 154 27M 27 154L 137 154M 27 154C 17.6112 154 10 146.3888 10 137"></path></g></g></g><g id="g-root-cp_2_g-2_4ikmnxuvk2yv-stroke" data-item-order="-503833" transform="translate(682, 326)"><g id="cp_2_g-2_4ikmnxuvk2yv-stroke" fill="none" stroke-linecap="round" stroke-linejoin="round" stroke-miterlimit="4" stroke="#b95ce3" stroke-width="2" stroke-opacity="1"><g><path d="M 10 10L 150 10"></path></g></g></g><g id="g-root-cp_2-1_g-2-1_2r4jhuvk3r4-stroke" data-item-order="-503817" transform="translate(858, 158)"><g id="cp_2-1_g-2-1_2r4jhuvk3r4-stroke" fill="none" stroke-linecap="round" stroke-linejoin="round" stroke-miterlimit="4" stroke="#b95ce3" stroke-width="2" stroke-opacity="1"><g><path d="M 10 10L 88 10"></path></g></g></g><g id="g-root-cp_2-2_g-2-2_1lseo59uvk54x-stroke" data-item-order="-503807" transform="translate(858, 218)"><g id="cp_2-2_g-2-2_1lseo59uvk54x-stroke" fill="none" stroke-linecap="round" stroke-linejoin="round" stroke-miterlimit="4" stroke="#b95ce3" stroke-width="2" stroke-opacity="1"><g><path d="M 10 10L 124 10"></path></g></g></g><g id="g-root-cp_2-3_g-2-3_1cxe4zhuvk2ru-stroke" data-item-order="-503797" transform="translate(858, 266)"><g id="cp_2-3_g-2-3_1cxe4zhuvk2ru-stroke" fill="none" stroke-linecap="round" stroke-linejoin="round" stroke-miterlimit="4" stroke="#b95ce3" stroke-width="2" stroke-opacity="1"><g><path d="M 10 10L 64 10"></path></g></g></g><g id="g-root-cp_2-4_g-2-4_18hkmv1uvk3k3-stroke" data-item-order="-503787" transform="translate(858, 314)"><g id="cp_2-4_g-2-4_18hkmv1uvk3k3-stroke" fill="none" stroke-linecap="round" stroke-linejoin="round" stroke-miterlimit="4" stroke="#b95ce3" stroke-width="2" stroke-opacity="1"><g><path d="M 10 10L 64 10"></path></g></g></g><g id="g-root-cp_2-5_g-2-5_v644hpuvk550-stroke" data-item-order="-503777" transform="translate(858, 362)"><g id="cp_2-5_g-2-5_v644hpuvk550-stroke" fill="none" stroke-linecap="round" stroke-linejoin="round" stroke-miterlimit="4" stroke="#b95ce3" stroke-width="2" stroke-opacity="1"><g><path d="M 10 10L 76.000004 10"></path></g></g></g><g id="g-root-cp_2-6_g-2-6_mb3lbxuvk2rx-stroke" data-item-order="-503767" transform="translate(858, 410)"><g id="cp_2-6_g-2-6_mb3lbxuvk2rx-stroke" fill="none" stroke-linecap="round" stroke-linejoin="round" stroke-miterlimit="4" stroke="#b95ce3" stroke-width="2" stroke-opacity="1"><g><path d="M 10 10L 88 10"></path></g></g></g><g id="g-root-cp_2-7_g-2-7_hva37huvk3k6-stroke" data-item-order="-503757" transform="translate(858, 458)"><g id="cp_2-7_g-2-7_hva37huvk3k6-stroke" fill="none" stroke-linecap="round" stroke-linejoin="round" stroke-miterlimit="4" stroke="#b95ce3" stroke-width="2" stroke-opacity="1"><g><path d="M 10 10L 52 10"></path></g></g></g><g id="g-root-cp_2-8_g-2-8_8zn2yluvk4cv-stroke" data-item-order="-503747" transform="translate(858, 506)"><g id="cp_2-8_g-2-8_8zn2yluvk4cv-stroke" fill="none" stroke-linecap="round" stroke-linejoin="round" stroke-miterlimit="4" stroke="#b95ce3" stroke-width="2" stroke-opacity="1"><g><path d="M 10 10L 100 10"></path></g></g></g><g id="g-root-he_4jtku5uvk555-stroke" data-item-order="-503733" transform="translate(346, 242)"><g id="he_4jtku5uvk555-stroke" fill="none" stroke-linecap="round" stroke-linejoin="round" stroke-miterlimit="4" stroke="#b95ce3" stroke-width="2" stroke-opacity="1"><g><path d="M 106 100C 58 100 58 10 10 10"></path></g></g></g><g id="g-root-he_4mjstuvk2rn-stroke" data-item-order="-503731" transform="translate(170, 194)"><g id="he_4mjstuvk2rn-stroke" fill="none" stroke-linecap="round" stroke-linejoin="round" stroke-miterlimit="4" stroke="#b95ce3" stroke-width="2" stroke-opacity="1"><g><path d="M 46 58C 28 58 28 10 10 10M 46 58C 28 58 28 58 10 58M 46 58C 28 58 28 106 10 106"></path></g></g></g><g id="g-root-he_1qa3lj1uvk3d9-stroke" data-item-order="-503729" transform="translate(586, 326)"><g id="he_1qa3lj1uvk3d9-stroke" fill="none" stroke-linecap="round" stroke-linejoin="round" stroke-miterlimit="4" stroke="#b95ce3" stroke-width="2" stroke-opacity="1"><g><path d="M 10 16C 58 16 58 10 106 10"></path></g></g></g><g id="g-root-he_1qa3lj1uvk3db-stroke" data-item-order="-503727" transform="translate(822, 158)"><g id="he_1qa3lj1uvk3db-stroke" fill="none" stroke-linecap="round" stroke-linejoin="round" stroke-miterlimit="4" stroke="#b95ce3" stroke-width="2" stroke-opacity="1"><g><path d="M 10 178C 28 178 28 10 46 10M 10 178C 28 178 28 70 46 70M 10 178C 28 178 28 118 46 118M 10 178C 28 178 28 166 46 166M 10 178C 28 178 28 214 46 214M 10 178C 28 178 28 262 46 262M 10 178C 28 178 28 310 46 310M 10 178C 28 178 28 358 46 358"></path></g></g></g><g id="g-root-he_1lua3eluvk45l-stroke" data-item-order="-503725" transform="translate(346, 332)"><g id="he_1lua3eluvk45l-stroke" fill="none" stroke-linecap="round" stroke-linejoin="round" stroke-miterlimit="4" stroke="#b95ce3" stroke-width="2" stroke-opacity="1"><g><path d="M 106 10C 58 10 58 100 10 100"></path></g></g></g><g id="g-root-he_1hegla5uvk4xv-stroke" data-item-order="-503723" transform="translate(170, 374)"><g id="he_1hegla5uvk4xv-stroke" fill="none" stroke-linecap="round" stroke-linejoin="round" stroke-miterlimit="4" stroke="#b95ce3" stroke-width="2" stroke-opacity="1"><g><path d="M 46 58C 28 58 28 10 10 10M 46 58C 28 58 28 58 10 58M 46 58C 28 58 28 106 10 106"></path></g></g></g><g id="g-root-tx_machinel_1qd7yyluvliq1-stroke" data-item-order="0" transform="translate(864, 176)"></g><g id="g-root-tx_utilitie_94mvnhuvliq4-stroke" data-item-order="0" transform="translate(864, 284)"></g><g id="g-root-tx_smartdem_18itl19uvljwq-stroke" data-item-order="0" transform="translate(454, 272)"></g><g id="g-root-tx_sourceco_qu1gvxuvk3y9-stroke" data-item-order="0" transform="translate(92, 212)"></g><g id="g-root-tx_database_1qf3e7xuvlhqd-stroke" data-item-order="0" transform="translate(864, 332)"></g><g id="g-root-tx_frontend_94mvnhuvk4jx-stroke" data-item-order="0" transform="translate(234, 212)"></g><g id="g-root-tx_publicfi_1lw5inxuvk35z-stroke" data-item-order="0" transform="translate(92, 164)"></g><g id="g-root-tx_backend_4lp03huvlibw-stroke" data-item-order="0" transform="translate(663.4285888671875, 264.122314453125)"></g><g id="g-root-tx_apiroute_me7yrhuvli4v-stroke" data-item-order="0" transform="translate(864, 128)"></g><g id="g-root-tx_nginxcon_hs5prxuvlhc1-stroke" data-item-order="0" transform="translate(56, 392)"></g><g id="g-root-tx_environm_8ye4sduvlh51-stroke" data-item-order="0" transform="translate(216, 392)"></g><g id="g-root-tx_datastor_13ymrb1uvmvim-stroke" data-item-order="0" transform="translate(864, 380)"></g><g id="g-root-tx_smartdem_v7zjr1uvk45p-stroke" data-item-order="0" transform="translate(286, 38)"></g><g id="g-root-tx_document_1q6cr0duvmygx-stroke" data-item-order="0" transform="translate(864, 476)"></g><g id="g-root-tx_deployme_1cvipq5uvlipv-stroke" data-item-order="0" transform="translate(56, 440)"></g><g id="g-root-tx_tests_qn68xpuvmx3j-stroke" data-item-order="0" transform="translate(864, 428)"></g><g id="g-root-tx_services_1d2dxoduvlh56-stroke" data-item-order="0" transform="translate(864, 236)"></g><g id="g-root-tx_dependen_1lxegu5uvk5c3-stroke" data-item-order="0" transform="translate(80, 260)"></g><g id="g-root-tx_dockerco_1d3mvuluvk553-stroke" data-item-order="0" transform="translate(68, 344)"></g></g></g><path id="wzqwt7hqpueq6" d="M65.283 12.757a.35.35 0 0 0 .584.157l5.203-5.141-6.183 3.523.396 1.461zm-2.216-11.7a.35.35 0 0 0-.522.305v3.111l3.276-1.868-2.754-1.548zm3.728 2.105l-4.25 2.421v2.445l6.391-3.644-2.141-1.222zm4.708 3.303a.35.35 0 0 0 0-.609l-1.592-.9-7.365 4.199v1.782a.35.35 0 0 0 .523.305l8.435-4.777z M44.542 2.513c0-.433.355-.783.792-.783s.792.35.792.783-.355.783-.792.783-.792-.35-.792-.783zm59.171 0c0-.433.355-.783.792-.783s.792.35.792.783-.355.783-.792.783-.792-.35-.792-.783zm-85.951 7.636h-1.27v-.487c-.276.201-.864.609-1.881.609-1.202 0-2.274-.794-2.137-2.078.118-1.106 1.153-1.584 1.848-1.727l2.17-.345c0-.539-.29-.956-1.064-1.006s-1.21.305-1.571 1.017l-1.124-.605c1.218-2.631 5.029-1.764 5.029.414v4.207zm-1.27-2.86c.006.396-.062 1.112-.819 1.59-.587.37-1.841.299-1.903-.395-.049-.555.461-.791.906-.898l1.816-.297zm72.662 2.86h-1.27v-.487c-.276.201-.864.609-1.881.609-1.202 0-2.274-.794-2.137-2.078.118-1.106 1.153-1.584 1.848-1.727l2.17-.345c0-.539-.29-.956-1.064-1.006s-1.21.305-1.571 1.017l-1.124-.605c1.218-2.631 5.029-1.764 5.029.414v4.207zm-1.27-2.86c.006.396-.062 1.112-.82 1.59-.587.37-1.841.299-1.903-.395-.049-.555.461-.791.906-.898l1.816-.297zM99.096 10.149H97.85v-8.45h1.246v4.895l2.68-2.559h1.738l-2.633 2.535 2.715 3.578h-1.556l-2.077-2.707-.867.844v1.863zm6.053-6.114h-1.255v6.113h1.255V4.035zm-59.2 0h-1.255v6.113h1.255V4.035zm5.584 6.113V1.697h1.255v2.695c.361-.346 1-.485 1.47-.485 1.452 0 2.477 1.082 2.457 2.448v3.792h-1.27v-3.68c0-.408-.214-1.339-1.315-1.339-.968 0-1.342.756-1.342 1.339v3.681h-1.255zm-4.76-4.894V4.039h.621a.45.45 0 0 0 .45-.45v-.855h1.251v1.305h1.309v1.215h-1.309v3.109c0 .293.105.664.648.664.365 0 .531-.035.736-.07v1.137s-.361.113-.857.113c-1.398 0-1.777-1.051-1.777-1.788V5.254h-1.071zM36.528 4.039h-1.394l2.191 6.106h1.125l1.234-3.918 1.238 3.918h1.129l2.188-6.106h-1.383l-1.359 3.93-1.256-3.93h-1.124l-1.242 3.957-1.348-3.957zM26.212 7.141c-.02 1.566 1.187 3.129 3.223 3.129 1.566 0 2.383-.918 2.734-1.719L31.172 8c-.315.399-.801 1.094-1.738 1.094-1.145 0-1.825-.781-1.891-1.52h4.625c.074-.284.148-.995-.03-1.559-.336-1.064-1.221-2.102-2.839-2.102s-3.088 1.152-3.088 3.227zm1.363-.75h3.348c-.055-.43-.566-1.301-1.623-1.301a1.79 1.79 0 0 0-1.725 1.301zm-8.758.75c.038 1.758 1.277 3.133 3.145 3.133 1.074 0 1.723-.477 1.961-.672v.547h1.242V1.703h-1.258v2.888c-.414-.36-1.062-.68-1.93-.68-1.91 0-3.198 1.473-3.16 3.23zm1.309-.08c0 1.119.723 1.978 1.836 1.978a1.88 1.88 0 0 0 1.94-1.904c0-1.371-1.011-1.99-1.972-1.99s-1.805.798-1.805 1.916zm76.683-.028C96.771 5.275 95.532 3.9 93.664 3.9c-1.074 0-1.723.477-1.961.672v-.547h-1.242v8.22h1.258V9.583c.414.36 1.063.68 1.93.68 1.91 0 3.198-1.473 3.16-3.23zm-1.309.08c0-1.119-.723-1.978-1.836-1.978a1.88 1.88 0 0 0-1.94 1.904c0 1.371 1.011 1.99 1.972 1.99S95.5 8.231 95.5 7.113zM106.441 10.173V4.036h1.254v.382c.361-.346 1-.485 1.47-.485 1.452 0 2.477 1.082 2.457 2.448v3.792h-1.27V6.492c0-.408-.214-1.339-1.315-1.339-.969 0-1.342.756-1.342 1.339v3.681h-1.254zm-30.383-.021V1.824h1.084l4.215 5.777V1.824h1.32v8.328h-1.094l-4.207-5.796v5.796h-1.319zM5.24 10.149H4V2.377h1.014l2.664 3.597 2.654-3.592h1.03v7.766h-1.256V4.762L7.678 8.068 5.24 4.742v5.407z" transform="translate(912, 566)" fill="#ababab88" stroke="none"></path></svg>